<?xml version="1.0" encoding="UTF-8" standalone="no"?>
<!-- Uploaded to: SVG Repo, www.svgrepo.com, Generator: SVG Repo Mixer Tools -->

<svg
   width="666.9267"
   height="600.13007"
   viewBox="0 0 20.007801 18.003902"
   fill="none"
   version="1.1"
   id="svg1"
   xmlns="http://www.w3.org/2000/svg"
   xmlns:svg="http://www.w3.org/2000/svg">
  <defs
     id="defs1" />
  <path
     d="m 10.003901,7.4039013 v 9.5999997 m 0,-9.5999997 c 0,-2.2402101 0,-3.3603101 -0.4359999,-4.2159601 -0.3835,-0.75265 -0.9954,-1.36457 -1.74804,-1.74807 -0.85565,-0.43597 -1.97575,-0.43597 -4.21596,-0.43597 h -1 c -0.56005,0 -0.84008,0 -1.05399,0.10899 -0.18816,0.09588 -0.34114,0.24886 -0.43702,0.43702 -0.10899,0.21391 -0.10899,0.49394 -0.10899,1.05399 V 13.403901 c 0,0.5601 0,0.8401 0.10899,1.054 0.09588,0.1882 0.24886,0.3411 0.43702,0.437 0.21391,0.109 0.49394,0.109 1.05399,0.109 h 2.94668 c 0.54019,0 0.81028,0 1.07146,0.0466 0.23181,0.0413 0.45796,0.1097 0.67377,0.204 0.24313,0.1061 0.46786,0.2559 0.91729,0.5556 l 1.7907999,1.1938 m 0,-9.5999997 c 0,-2.2402101 0,-3.3603101 0.436,-4.2159601 0.3835,-0.75265 0.9954,-1.36457 1.748,-1.74807 0.8557,-0.43597 1.9758,-0.43597 4.216,-0.43597 h 1 c 0.5601,0 0.8401,0 1.054,0.10899 0.1882,0.09588 0.3411,0.24886 0.437,0.43702 0.109,0.21391 0.109,0.49394 0.109,1.05399 V 13.403901 c 0,0.5601 0,0.8401 -0.109,1.054 -0.0959,0.1882 -0.2488,0.3411 -0.437,0.437 -0.2139,0.109 -0.4939,0.109 -1.054,0.109 h -2.9467 c -0.5402,0 -0.8103,0 -1.0714,0.0466 -0.2319,0.0413 -0.458,0.1097 -0.6738,0.204 -0.2431,0.1061 -0.4679,0.2559 -0.9173,0.5556 l -1.7908,1.1938"
     stroke="#000000"
     stroke-width="2"
     stroke-linecap="round"
     stroke-linejoin="round"
     id="path1" />
</svg>
