<?xml version="1.0" encoding="iso-8859-1"?>
<!-- Uploaded to: SVG Repo, www.svgrepo.com, Generator: SVG Repo Mixer Tools -->
<svg height="800px" width="800px" version="1.1" id="Layer_1" xmlns="http://www.w3.org/2000/svg" xmlns:xlink="http://www.w3.org/1999/xlink" 
	 viewBox="0 0 512 512" xml:space="preserve">
<g>
	<path style="fill:#B8E5F4;" d="M125.023,84.695c0-9.309,7.545-16.856,16.856-16.856h57.613c9.309,0,16.856,7.547,16.856,16.856l0,0
		c0,9.308-7.547,16.856-16.856,16.856h-57.613C132.568,101.551,125.023,94.003,125.023,84.695L125.023,84.695z"/>
	<circle style="fill:#B8E5F4;" cx="80.924" cy="84.699" r="16.856"/>
</g>
<path style="fill:#B0E046;" d="M195.07,282.198c0,74.008-21,98.268-46.9,98.268c-25.902,0-46.901-24.261-46.901-98.268
	c0-74.006,20.998-134.001,46.901-134.001C174.07,148.197,195.07,208.192,195.07,282.198z"/>
<g style="opacity:0.1;">
	<path style="fill:#231F20;" d="M126.72,282.198c0-61.404,14.456-113.158,34.174-129.005c-4.047-3.251-8.314-4.996-12.725-4.996
		c-25.902,0-46.901,59.995-46.901,134.001c0,74.008,20.998,98.268,46.901,98.268c4.411,0,8.679-0.706,12.725-2.238
		C141.177,370.758,126.72,343.602,126.72,282.198z"/>
</g>
<g>
	<circle style="fill:#36CC6B;" cx="237.867" cy="361.587" r="30.298"/>
	<path style="fill:#36CC6B;" d="M287.224,199.663c-43.989,0-79.647,35.661-79.647,79.649c0,20.616,7.833,39.406,20.686,53.548
		c3.021-1.009,6.25-1.565,9.609-1.565c15.014,0,27.469,10.924,29.869,25.255c6.237,1.569,12.761,2.409,19.483,2.409
		c43.99,0,79.649-35.661,79.649-79.648C366.873,235.325,331.214,199.663,287.224,199.663z"/>
	<path style="fill:#36CC6B;" d="M267.055,446.727c-31.38,0-57.083,24.222-59.479,54.986h68.514
		c2.945-18.008,16.721-32.373,34.428-36.181C299.632,453.963,284.195,446.727,267.055,446.727z"/>
</g>
<path style="fill:#B0E046;" d="M276.091,501.713h87.615c-3.449-21.088-21.744-37.181-43.807-37.181S279.54,480.625,276.091,501.713z
	"/>
<path style="fill:#2DA555;" d="M430.87,435.849c38.537,0,70.102,29.746,73.042,67.526h-84.139
	c-3.617-22.114-20.536-39.755-42.281-44.432C390.863,444.736,409.823,435.849,430.87,435.849z"/>
<path style="fill:#B0E046;" d="M101.269,501.942h92.82c-3.655-22.341-23.036-39.391-46.41-39.391
	C124.305,462.551,104.923,479.602,101.269,501.942z"/>
<path style="fill:#36CC6B;" d="M365.976,457.714c-11.425,0-22.022,3.525-30.781,9.53c14.799,5.435,25.901,18.52,28.51,34.469
	h-51.217c-0.11,0.552-0.22,1.104-0.311,1.662h107.596C415.539,477.478,393.07,457.714,365.976,457.714z"/>
<path style="fill:#FFA233;" d="M327.327,114.548c6.374,6.375,15.179,10.318,24.905,10.318c19.454,0,35.225-15.771,35.225-35.224
	c0-19.455-15.771-35.225-35.225-35.225c-19.452,0-35.224,15.77-35.224,35.225C317.01,99.367,320.953,108.173,327.327,114.548"/>
<g>
	<path style="fill:#231F20;" d="M199.492,109.618h-57.612c-13.742,0-24.922-11.18-24.922-24.922
		c0-13.742,11.18-24.922,24.922-24.922h57.613c13.742,0,24.922,11.179,24.922,24.922
		C224.414,98.437,213.234,109.618,199.492,109.618z M141.879,75.906c-4.846,0-8.789,3.943-8.789,8.789
		c0,4.846,3.943,8.789,8.789,8.789h57.613c4.846,0,8.789-3.943,8.789-8.789c0-4.846-3.943-8.789-8.789-8.789H141.879z"/>
	<path style="fill:#231F20;" d="M80.922,109.618c-13.742,0-24.922-11.18-24.922-24.922c0-13.742,11.18-24.922,24.922-24.922
		s24.922,11.179,24.922,24.922C105.844,98.437,94.664,109.618,80.922,109.618z M80.922,75.906c-4.846,0-8.789,3.943-8.789,8.789
		c0,4.846,3.943,8.789,8.789,8.789c4.846,0,8.789-3.943,8.789-8.789C89.711,79.849,85.768,75.906,80.922,75.906z"/>
	<path style="fill:#231F20;" d="M48.199,511.441H8.067c-4.455,0-8.067-3.612-8.067-8.067c0-4.456,3.612-8.067,8.067-8.067h40.133
		c4.455,0,8.067,3.611,8.067,8.067C56.266,507.831,52.654,511.441,48.199,511.441z"/>
	<path style="fill:#231F20;" d="M511.903,502.116c-1.723-20.122-10.824-38.774-25.67-52.58
		c-15.087-14.028-34.749-21.755-55.364-21.755c-20.839,0-41.038,8.145-56.101,22.477c-2.876-0.4-5.81-0.612-8.791-0.612
		c-11.305,0-22.242,3.017-31.884,8.745c-4.523-1.256-9.284-1.927-14.194-1.927c-2.255,0-4.479,0.15-6.663,0.424
		c-5.327-4.959-11.4-8.998-17.944-12.003v-42.859c0-0.005,0-0.011,0-0.016v-35.368c44.597-4.087,79.649-41.684,79.649-87.329
		c0-48.367-39.349-87.716-87.716-87.716c-40.739,0-75.076,27.919-84.894,65.628c-1.751-27.213-6.346-52.334-13.384-72.445
		c-10.224-29.21-24.324-44.65-40.777-44.65c-16.454,0-30.554,15.44-40.778,44.65c-9.151,26.144-14.19,60.741-14.19,97.417
		c0,78.604,23.91,101.659,46.901,105.654v17.809l-14.552-10.163c-3.653-2.553-8.681-1.661-11.232,1.994
		c-2.551,3.653-1.658,8.681,1.994,11.231l23.79,16.615v29.66c-21.94,2.987-39.938,18.791-45.647,40.31h-21.16
		c-4.455,0-8.067,3.611-8.067,8.067c0,4.456,3.612,8.067,8.067,8.067h238.882h107.595h83.043h1.096c0.006,0,0.015,0,0.021,0
		c4.456,0,8.067-3.611,8.067-8.067C512,502.948,511.967,502.527,511.903,502.116z M365.976,465.78c3.311,0,6.544,0.351,9.667,1.005
		c0.053,0.012,0.101,0.033,0.155,0.044c15.278,3.286,27.806,14.244,33.422,28.479h-38.653c-0.012-0.044-0.026-0.087-0.039-0.132
		c-2.984-11.109-9.408-20.605-18.008-27.413C356.848,466.455,361.37,465.78,365.976,465.78z M332.295,474.763
		c0.041,0.016,0.077,0.038,0.119,0.054c9.155,3.362,16.453,10.221,20.448,18.831h-40.375h-25.51
		c4.739-10.125,14.034-17.818,25.237-20.229c0.02-0.004,0.039-0.012,0.059-0.017c2.463-0.521,5.012-0.803,7.625-0.803
		C324.243,472.598,328.416,473.367,332.295,474.763z M269.696,493.646h-52.638c5.733-22.372,26.218-38.853,49.997-38.853
		c10,0,19.506,2.8,27.689,8.036C282.872,469.283,273.741,480.215,269.696,493.646z M242.985,355.351
		c-3.446-2.823-8.528-2.32-11.352,1.126c-2.824,3.445-2.32,8.528,1.125,11.352l16.005,13.117c-3.222,1.821-6.934,2.873-10.892,2.873
		c-12.257,0-22.228-9.971-22.228-22.229c0-9.87,6.472-18.25,15.391-21.141c0.261-0.084,0.526-0.155,0.789-0.229
		c0.384-0.109,0.771-0.212,1.164-0.3c0.276-0.062,0.553-0.118,0.831-0.17c0.425-0.079,0.853-0.143,1.285-0.197
		c0.239-0.03,0.478-0.065,0.717-0.087c0.677-0.062,1.358-0.104,2.05-0.104c0.732,0,1.456,0.041,2.17,0.11
		c0.184,0.017,0.362,0.052,0.545,0.073c0.541,0.067,1.079,0.141,1.607,0.246c0.17,0.033,0.337,0.077,0.504,0.114
		c0.551,0.123,1.097,0.258,1.632,0.421c0.116,0.034,0.23,0.074,0.345,0.111c0.604,0.195,1.2,0.409,1.781,0.653
		c0.038,0.016,0.075,0.031,0.113,0.047c5.238,2.236,9.443,6.427,11.705,11.65c0.06,0.141,0.117,0.283,0.174,0.425
		c0.186,0.456,0.354,0.922,0.511,1.392c0.087,0.268,0.172,0.537,0.251,0.809c0.102,0.354,0.191,0.713,0.276,1.074
		c0.084,0.359,0.166,0.72,0.232,1.085c0.24,1.306,0.383,2.645,0.383,4.018c0,2.404-0.395,4.714-1.104,6.883L242.985,355.351z
		 M275.935,366.295c1.072,0.139,2.146,0.262,3.223,0.361v18.342l-7.178-5.883C274.006,375.185,275.373,370.864,275.935,366.295z
		 M287.224,207.73c39.47,0,71.583,32.111,71.583,71.583c0,36.743-27.831,67.092-63.516,71.115v-62.011
		c0-4.456-3.611-8.067-8.067-8.067c-4.456,0-8.067,3.611-8.067,8.067v62.006c-1.605-0.181-3.206-0.398-4.794-0.687
		c-4.442-13.808-16.301-23.881-30.641-26.06c-0.02-0.003-0.042-0.005-0.062-0.009c-0.553-0.083-1.109-0.153-1.668-0.213
		c-0.143-0.015-0.286-0.029-0.429-0.043c-0.46-0.044-0.923-0.078-1.387-0.105c-0.162-0.01-0.324-0.022-0.486-0.029
		c-0.603-0.028-1.209-0.046-1.818-0.046c-0.611,0-1.221,0.017-1.829,0.046c-0.238,0.011-0.473,0.031-0.71,0.047
		c-0.36,0.024-0.72,0.048-1.079,0.083c-0.302,0.028-0.602,0.065-0.903,0.1c-0.282,0.033-0.563,0.068-0.843,0.108
		c-0.343,0.048-0.684,0.102-1.024,0.159c-0.108,0.018-0.216,0.031-0.324,0.051c-10.037-12.626-15.516-28.256-15.516-44.509
		C215.643,239.842,247.753,207.73,287.224,207.73z M202.562,302.227c2.706,10.02,7.184,19.494,13.259,28.002
		c-9.855,6.95-16.311,18.412-16.311,31.362c0,21.153,17.209,38.362,38.361,38.362c9.02,0,17.316-3.137,23.873-8.367l17.413,14.271
		v33.928c-3.974-0.728-8.02-1.125-12.102-1.125c-32.688,0-60.621,23.736-66.552,55.228c-6.018-20.474-23.258-35.492-44.266-38.737
		v-67.3C177.142,384.22,198.805,364.818,202.562,302.227z M109.335,282.198c0-78.024,22.619-125.934,38.835-125.934
		s38.834,47.91,38.834,125.934c0,37.443-5.581,81.423-30.767,89.043v-65.082c0-4.456-3.612-8.067-8.067-8.067
		s-8.067,3.611-8.067,8.067v65.082C114.916,363.621,109.335,319.641,109.335,282.198z M147.678,470.618
		c15.842,0,29.627,9.354,35.693,23.258h-71.386C118.052,479.972,131.837,470.618,147.678,470.618z M426.232,495.308
		c-4.9-17.642-17.094-31.825-32.974-39.468c10.908-7.755,23.891-11.925,37.612-11.925c30.857,0,57.324,21.96,63.724,51.393
		L426.232,495.308L426.232,495.308z"/>
	<path style="fill:#231F20;" d="M352.234,132.931c-11.563,0-22.434-4.504-30.61-12.681c-8.177-8.175-12.681-19.047-12.681-30.61
		c0-23.871,19.42-43.292,43.291-43.292c23.871,0,43.292,19.421,43.292,43.292C395.525,113.512,376.104,132.931,352.234,132.931z
		 M352.234,62.482c-14.975,0-27.157,12.183-27.157,27.159c0,7.253,2.825,14.073,7.955,19.203c5.13,5.13,11.948,7.955,19.203,7.955
		c14.976,0,27.159-12.183,27.159-27.157C379.392,74.666,367.208,62.482,352.234,62.482z"/>
	<path style="fill:#231F20;" d="M433.25,97.707h-22.895c-4.456,0-8.067-3.611-8.067-8.067c0-4.456,3.611-8.067,8.067-8.067h22.895
		c4.456,0,8.067,3.611,8.067,8.067C441.316,94.096,437.705,97.707,433.25,97.707z"/>
	<path style="fill:#231F20;" d="M294.113,97.707h-22.895c-4.455,0-8.067-3.611-8.067-8.067c0-4.456,3.612-8.067,8.067-8.067h22.895
		c4.456,0,8.067,3.611,8.067,8.067C302.18,94.096,298.569,97.707,294.113,97.707z"/>
	<path style="fill:#231F20;" d="M393.331,56.61c-2.064,0-4.129-0.787-5.705-2.362c-3.15-3.151-3.15-8.258,0-11.408l16.19-16.19
		c3.151-3.149,8.258-3.149,11.408,0c3.15,3.151,3.15,8.258,0,11.408l-16.19,16.19C397.459,55.822,395.395,56.61,393.331,56.61z"/>
	<path style="fill:#231F20;" d="M294.948,154.994c-2.064,0-4.129-0.788-5.704-2.362c-3.151-3.15-3.151-8.258-0.001-11.408
		l16.19-16.191c3.151-3.151,8.259-3.15,11.407-0.001c3.151,3.15,3.151,8.258,0.001,11.407l-16.19,16.191
		C299.077,154.206,297.012,154.994,294.948,154.994z"/>
	<path style="fill:#231F20;" d="M352.234,39.587L352.234,39.587c-4.456,0-8.067-3.612-8.067-8.067l0.001-22.895
		c0-4.456,3.612-8.067,8.067-8.067l0,0c4.456,0,8.067,3.612,8.067,8.067L360.3,31.52C360.3,35.976,356.687,39.587,352.234,39.587z"
		/>
	<path style="fill:#231F20;" d="M352.234,178.723c-4.456,0-8.067-3.612-8.067-8.067v-22.896c0-4.456,3.611-8.067,8.067-8.067
		c4.456,0,8.067,3.611,8.067,8.067v22.896C360.3,175.112,356.688,178.723,352.234,178.723z"/>
	<path style="fill:#231F20;" d="M311.138,56.611c-2.064,0-4.129-0.787-5.705-2.362l-16.19-16.19c-3.15-3.151-3.15-8.258,0-11.408
		c3.151-3.149,8.258-3.149,11.408,0l16.19,16.19c3.15,3.151,3.15,8.258,0,11.408C315.267,55.823,313.202,56.611,311.138,56.611z"/>
	<path style="fill:#231F20;" d="M409.52,154.995c-2.064,0-4.129-0.787-5.705-2.362l-16.19-16.19c-3.15-3.151-3.15-8.258,0-11.408
		c3.151-3.149,8.258-3.149,11.408,0l16.19,16.19c3.15,3.151,3.15,8.258,0,11.408C413.649,154.207,411.584,154.995,409.52,154.995z"
		/>
</g>
<g style="opacity:0.1;">
	<path style="fill:#231F20;" d="M232.841,279.312c0-39.687,29.031-72.586,67.017-78.641c-4.115-0.655-8.333-1.007-12.633-1.007
		c-43.989,0-79.647,35.661-79.647,79.649c0,20.616,7.833,39.406,20.686,53.548c3.021-1.009,6.25-1.565,9.609-1.565
		c15.014,0,27.469,10.924,29.869,25.255c6.237,1.569,12.761,2.409,19.483,2.409c4.3,0,8.518-0.352,12.633-1.007
		C261.872,351.897,232.841,318.999,232.841,279.312z"/>
</g>
</svg>