<?xml version="1.0" encoding="UTF-8" standalone="no"?>
<svg
   version="1.1"
   x="0px"
   y="0px"
   viewBox="0 0 300 300"
   enable-background="new 0 0 100 100"
   xml:space="preserve"
   id="svg2"
   width="300"
   height="300"
   xmlns="http://www.w3.org/2000/svg"
   xmlns:svg="http://www.w3.org/2000/svg"><defs
     id="defs2"><style
       id="style1">.cls-1{fill:#ffffff;}</style></defs><g
     id="g2"
     transform="matrix(4.88006,0,0,4.4826769,-6.16192,9.8579868)"><path
       fill="#dae3ea"
       d="M 38.7,47.5 H 25.3 L 24,44 h 16 z"
       id="path1" /><path
       d="M 38.7,48.2 H 25.3 C 23.6,54.4 21.2,59 16,64 h 7.7 c 0,0 2.7,-9.5 8.3,-9.5 5.6,0 8.3,9.5 8.3,9.5 H 48 C 42.8,59 40.4,54.4 38.7,48.2"
       fill="#ed4c5c"
       id="path2-3" /><path
       fill="#ed4c5c"
       d="m 37.5,43.3 h -11 l 1.6,-5.6 h 7.8 z"
       id="path7" /><path
       fill="#dae3ea"
       d="m 35.9,37 h -7.8 l 0.8,-7 h 6 z"
       id="path8" /><path
       fill="#ed4c5c"
       d="m 35,30 h -6 l 0.8,-6.8 h 4.4 z"
       id="path9" /><g
       fill="#dae3ea"
       id="g11"><path
         d="m 28.4,19.6 h 7.2 v 2.9 h -7.2 z"
         id="path10" /><path
         d="m 28.4,15 h 7.2 v 1.8 h -7.2 z"
         id="path11" /></g><path
       fill="#ed4c5c"
       d="m 28.4,13.6 h 7.2 V 15 h -7.2 z"
       id="path12" /><path
       fill="#c94747"
       d="m 30.7,8.2 h 2.6 v 5.4 h -2.6 z"
       id="path13" /><path
       fill="#dae3ea"
       d="m 30.7,1.5 h 2.6 v 6.8 h -2.6 z"
       id="path14" /><path
       fill="#ed4c5c"
       d="m 30.7,0 h 2.6 v 1.5 h -2.6 z"
       id="path15" /><g
       fill="#c5d0d8"
       id="g17"><path
         d="m 30,16.8 h 4 v 2.9 h -4 z"
         id="path16" /><path
         d="m 28.3,30 h 7.5 v 0.7 h -7.5 z"
         id="path17" /></g><g
       fill="#b2c1c0"
       id="g22"><path
         d="m 30.7,7.5 h 2.6 v 0.7 h -2.6 z"
         id="path18" /><path
         d="m 28.4,21.8 h 7.2 v 0.7 h -7.2 z"
         id="path19" /><path
         d="m 28.3,30.7 h 7.5 v 0.7 h -7.5 z"
         id="path20" /><path
         d="M 28.1,32.8 H 36 v 0.7 h -7.9 z"
         id="path21" /><path
         d="m 27.7,34.9 h 8.6 v 0.7 h -8.6 z"
         id="path22" /></g><g
       fill="#c5d0d8"
       id="g25"><path
         d="M 28.1,32.1 H 36 v 0.7 h -7.9 z"
         id="path23" /><path
         d="m 27.7,34.2 h 8.6 v 0.7 h -8.6 z"
         id="path24" /><path
         d="m 27.4,36.3 h 9.3 V 37 h -9.3 z"
         id="path25" /></g><g
       fill="#c94747"
       id="g33"><path
         d="m 25.3,47.5 h 13.3 v 0.7 H 25.3 Z"
         id="path26" /><path
         d="m 29.8,22.5 h 4.3 v 0.7 h -4.3 z"
         id="path27" /><path
         d="m 29.6,43.5 h -1.3 v -3.3 c 0,-0.4 0.3,-0.6 0.6,-0.6 0.4,0 0.6,0.3 0.6,0.6 l 0.1,3.3"
         id="path28" /><path
         d="m 31.6,43.5 h -1.3 v -3.3 c 0,-0.4 0.3,-0.6 0.6,-0.6 0.4,0 0.6,0.3 0.6,0.6 l 0.1,3.3"
         id="path29" /><path
         d="m 33.7,43.5 h -1.3 v -3.3 c 0,-0.4 0.3,-0.6 0.6,-0.6 0.4,0 0.6,0.3 0.6,0.6 l 0.1,3.3"
         id="path30" /><path
         d="m 35.7,43.5 h -1.3 v -3.3 c 0,-0.4 0.3,-0.6 0.6,-0.6 0.4,0 0.6,0.3 0.6,0.6 l 0.1,3.3"
         id="path31" /><path
         d="m 31.6,30 h -1.3 v -3.3 c 0,-0.4 0.3,-0.6 0.6,-0.6 0.4,0 0.6,0.3 0.6,0.6 l 0.1,3.3"
         id="path32" /><path
         d="m 33.7,30 h -1.3 v -3.3 c 0,-0.4 0.3,-0.6 0.6,-0.6 0.4,0 0.6,0.3 0.6,0.6 l 0.1,3.3"
         id="path33" /></g><path
       fill="#b2c1c0"
       d="M 24,43.3 H 40 V 44 H 24 Z"
       id="path34" /></g><g
     id="layer1"
     transform="translate(-45.449956,-2.5978782)"><g
       id="Layer_1-2"
       data-name="Layer 1"
       transform="matrix(0.80632065,0,0,0.80632065,90.916263,5.8481224)"
       style="fill:#e6e6e6"><path
         d="M 45.15,79.62 A 55.75,55.75 0 0 0 44.08,74 C 39.92,60.32 43.25,47.69 50.77,36.39 A 89.27,89.27 0 0 1 75.49,11.55 c 8.07,-5.4 17.05,-8 26.28,-10 18.31,-3.94 35.25,-0.28 50.77,10 8.07,5.34 13.84,12.84 18.35,21.24 3.78,7.05 6.8,14.46 7.84,22.25 1.81,1.63 3.46,0.74 5.06,0.34 a 34.4,34.4 0 0 1 26.48,3.7 30.46,30.46 0 0 1 12.79,13.46 c 1.71,3.59 3.15,7.3 4.91,11.42 a 45.47,45.47 0 0 0 6.6,-0.06 c 4.84,-0.7 8.85,0.92 12.94,3.36 11.12,6.61 13.05,16.49 11.16,26.5 -2,10.67 -7.72,18.76 -17.9,23.69 -12.22,5.92 -25.18,7.69 -38.4,7.61 -12.88,-0.07 -25.75,-1 -38.62,-1.65 -14.27,-0.78 -28.53,-2.13 -42.81,-2.48 A 195.75,195.75 0 0 0 91.8,142.4 c -18.8,2.38 -37.59,3.91 -56.52,2.74 A 84.89,84.89 0 0 1 20.93,142.63 C 12.5,140.63 7.27,134.87 3.57,127.27 0.59,121.14 -0.16,114.78 0,108.1 A 20.59,20.59 0 0 1 5.11,94.72 C 14.69,83.8 26.29,77.42 41.4,79.61 a 35.79,35.79 0 0 0 3.75,0.01 z m 172,13.58 c -0.48,-2.65 -0.88,-5.15 -1.39,-7.62 -1.92,-9.29 -6.65,-16.17 -15.84,-19.83 -5.41,-2.15 -10.43,-2.62 -15.66,0.12 a 53.59,53.59 0 0 1 -7,3.2 c -4.37,1.53 -7.15,0 -8.45,-4.55 a 11.51,11.51 0 0 1 -0.57,-3.37 C 168.4,53.72 165.46,47.07 162.44,40.66 156.15,27.43 146.26,18 132.21,13 120.13,8.71 108.12,8.86 95.94,12.33 A 51.11,51.11 0 0 0 81.23,19.17 C 73.26,24.51 67,31.55 61,38.85 A 36,36 0 0 0 53.29,55 c -1.53,7.89 -1.79,15.91 3.14,23.19 a 40.19,40.19 0 0 1 3.91,8.58 4.47,4.47 0 0 1 -4.92,6 17,17 0 0 1 -5.63,-2 C 38.06,84.12 24.52,89 17,97.25 c -2.09,2.27 -4.33,5 -5,7.85 -1.91,8.17 -0.1,15.86 4.95,22.69 3.3,4.46 8.11,6.3 13.24,7.23 a 99.6,99.6 0 0 0 29.1,1 c 13.09,-1.49 26.17,-3.39 39.3,-4.17 a 418.3,418.3 0 0 1 69.52,1.78 279,279 0 0 0 46.34,1.2 c 7.33,-0.43 14,-2.74 20.49,-5.9 a 20.7,20.7 0 0 0 7.64,-6.76 c 3.09,-4.29 4.55,-9.22 5.74,-14.25 a 8.75,8.75 0 0 0 -2.6,-8.65 c -1,-1 -2,-2.06 -3.09,-3 -3.7,-3.07 -7.55,-4.91 -12.61,-3 -3.79,1.5 -7.86,1.65 -12.89,-0.07 z"
         id="path1-3"
         style="fill:#1a1a1a" /><path
         class="cls-1"
         d="m 217.13,93.2 c 5,1.72 9.1,1.57 12.87,0.14 5.06,-1.93 8.91,-0.09 12.61,3 1.09,0.92 2.07,2 3.09,3 a 8.75,8.75 0 0 1 2.6,8.65 c -1.19,5 -2.65,10 -5.74,14.25 a 20.7,20.7 0 0 1 -7.64,6.76 c -6.49,3.16 -13.16,5.47 -20.49,5.9 a 279,279 0 0 1 -46.34,-1.2 418.3,418.3 0 0 0 -69.52,-1.78 c -13.13,0.78 -26.21,2.68 -39.3,4.17 a 99.6,99.6 0 0 1 -29.1,-1 c -5.13,-0.93 -9.94,-2.77 -13.24,-7.23 -5,-6.83 -6.86,-14.52 -4.95,-22.69 0.67,-2.86 2.91,-5.58 5,-7.85 C 24.52,89 38.06,84.12 49.79,90.8 a 17,17 0 0 0 5.63,2 4.47,4.47 0 0 0 4.92,-6 40.19,40.19 0 0 0 -3.91,-8.58 C 51.5,70.88 51.76,62.86 53.29,55 A 36,36 0 0 1 61,38.85 C 67,31.55 73.26,24.51 81.23,19.14 A 51.11,51.11 0 0 1 95.94,12.3 c 12.18,-3.47 24.19,-3.62 36.27,0.67 14,5 23.94,14.46 30.17,27.69 3,6.41 6,13.06 5.8,20.49 a 11.51,11.51 0 0 0 0.57,3.37 c 1.3,4.51 4.08,6.08 8.45,4.55 a 53.59,53.59 0 0 0 7,-3.2 c 5.23,-2.74 10.25,-2.27 15.66,-0.12 9.19,3.66 13.92,10.54 15.84,19.83 0.55,2.47 0.95,4.97 1.43,7.62 z"
         id="path2"
         style="fill:#e9fded;fill-opacity:0.990148" /></g></g></svg>
